<?xml version="1.0" standalone="no"?>
<!DOCTYPE svg PUBLIC "-//W3C//DTD SVG 20010904//EN"
 "http://www.w3.org/TR/2001/REC-SVG-20010904/DTD/svg10.dtd">
<svg version="1.0" xmlns="http://www.w3.org/2000/svg"
 width="160.000000pt" height="160.000000pt" viewBox="0 0 160.000000 160.000000"
 preserveAspectRatio="xMidYMid meet">
<metadata>
Created by potrace 1.11, written by Peter Selinger 2001-2013
</metadata>
<g transform="translate(0.000000,160.000000) scale(0.100000,-0.100000)"
fill="#000000" stroke="none">
<path d="M190 1495 c-5 -6 -8 -26 -7 -45 l2 -34 -70 -2 c-38 -1 -76 -2 -82 -3
-16 -1 -12 -52 4 -58 10 -4 13 -142 13 -674 l0 -669 740 0 c407 0 741 3 741 8
1 4 3 302 4 663 1 602 3 658 18 674 20 19 20 21 8 43 -8 16 -45 17 -423 17
-278 -1 -415 2 -420 9 -4 6 -8 23 -8 38 0 15 -6 30 -12 35 -20 12 -498 10
-508 -2z"/>
</g>
</svg>
